<svg width="109" height="105" viewBox="0 0 109 105" fill="none" xmlns="http://www.w3.org/2000/svg">
<path d="M25.5518 70.3435C22.7203 71.678 21.3904 74.965 22.4974 77.8929L22.8271 78.7649C23.999 81.8645 27.4618 83.4271 30.5613 82.2552L58.6381 71.6396C61.7377 70.4677 63.3004 67.005 62.1284 63.9054L61.3813 61.9293L60.9591 60.8126C59.7212 57.5386 55.9551 56.0149 52.7889 57.5071L25.5518 70.3435Z" fill="#006619"/>
<path d="M28.9028 76.0938C30.5285 80.3933 32.4394 83.5946 27.1919 85.5786C21.9444 87.5627 20.1261 84.2668 18.5005 79.9672C16.8748 75.6677 16.0575 71.9926 21.305 70.0086C26.5525 68.0245 27.2772 71.7942 28.9028 76.0938Z" fill="#CBFFC2"/>
<rect x="30.7826" y="39.9146" width="43.0358" height="52.3652" rx="6" transform="rotate(-40.9478 30.7826 39.9146)" fill="#2D7A3A"/>
<ellipse cx="48.615" cy="27.8286" rx="21.9064" ry="5.26661" transform="rotate(-40.9478 48.615 27.8286)" fill="#006619"/>
<ellipse cx="48.5898" cy="27.4517" rx="18.7949" ry="3.46092" transform="rotate(-40.9478 48.5898 27.4517)" fill="black" fill-opacity="0.5"/>
<mask id="path-6-inside-1_120_80" fill="white">
<path d="M69.7665 19.6361C71.259 18.3411 72.992 17.3527 74.8665 16.7274C76.741 16.1021 78.7204 15.8521 80.6915 15.9917C82.6626 16.1314 84.5869 16.6579 86.3545 17.5412C88.1222 18.4246 89.6985 19.6474 90.9936 21.1399C92.2886 22.6325 93.277 24.3655 93.9023 26.24C94.5276 28.1145 94.7776 30.0938 94.638 32.0649C94.4983 34.0361 93.9718 35.9604 93.0885 37.728C92.2052 39.4957 90.9823 41.072 89.4898 42.3671L86.1491 38.5169C87.136 37.6606 87.9446 36.6182 88.5287 35.4494C89.1128 34.2805 89.4609 33.0081 89.5532 31.7047C89.6456 30.4013 89.4803 29.0925 89.0668 27.853C88.6533 26.6135 87.9998 25.4676 87.1434 24.4807C86.2871 23.4937 85.2447 22.6851 84.0759 22.1011C82.9071 21.517 81.6346 21.1688 80.3313 21.0765C79.0279 20.9841 77.7191 21.1494 76.4796 21.5629C75.24 21.9764 74.0941 22.63 73.1072 23.4863L69.7665 19.6361Z"/>
</mask>
<path d="M69.7665 19.6361C71.259 18.3411 72.992 17.3527 74.8665 16.7274C76.741 16.1021 78.7204 15.8521 80.6915 15.9917C82.6626 16.1314 84.5869 16.6579 86.3545 17.5412C88.1222 18.4246 89.6985 19.6474 90.9936 21.1399C92.2886 22.6325 93.277 24.3655 93.9023 26.24C94.5276 28.1145 94.7776 30.0938 94.638 32.0649C94.4983 34.0361 93.9718 35.9604 93.0885 37.728C92.2052 39.4957 90.9823 41.072 89.4898 42.3671L86.1491 38.5169C87.136 37.6606 87.9446 36.6182 88.5287 35.4494C89.1128 34.2805 89.4609 33.0081 89.5532 31.7047C89.6456 30.4013 89.4803 29.0925 89.0668 27.853C88.6533 26.6135 87.9998 25.4676 87.1434 24.4807C86.2871 23.4937 85.2447 22.6851 84.0759 22.1011C82.9071 21.517 81.6346 21.1688 80.3313 21.0765C79.0279 20.9841 77.7191 21.1494 76.4796 21.5629C75.24 21.9764 74.0941 22.63 73.1072 23.4863L69.7665 19.6361Z" fill="#006619" stroke="black" stroke-width="0.18" mask="url(#path-6-inside-1_120_80)"/>
<path d="M30.6614 80.8142C30.4397 80.1982 30.7523 79.5181 31.3642 79.2853L55.8159 69.9815C56.4187 69.7522 57.0945 70.0449 57.3395 70.6414C57.5935 71.2601 57.2879 71.9666 56.663 72.2049L32.2193 81.5295C31.5913 81.7691 30.889 81.4466 30.6614 80.8142Z" fill="#111111" fill-opacity="0.5"/>
<rect x="50.3584" y="43.6482" width="17.4551" height="23.1731" rx="8.72753" transform="rotate(-40.9478 50.3584 43.6482)" fill="#006619" fill-opacity="0.5"/>
<rect x="62.1583" y="24.6438" width="7.22278" height="33.4054" rx="3.61139" transform="rotate(-40.9478 62.1583 24.6438)" fill="#006619" fill-opacity="0.5"/>
<path d="M58.9829 72.7886C59.2835 73.5907 60.0711 74.0194 61.2963 74.0477C62.5215 74.076 64.158 73.7034 66.103 72.9532C68.0481 72.203 70.2599 71.0914 72.5997 69.6881C74.9395 68.2848 77.3569 66.62 79.7003 64.7981C82.0437 62.9763 84.2626 61.0366 86.218 59.1007C88.1733 57.1648 89.8229 55.2745 91.0633 53.5481C92.3037 51.8218 93.1082 50.2968 93.4264 49.0686C93.7445 47.8404 93.5695 46.9355 92.9122 46.4107C93.4129 46.8105 89.5693 50.7285 89.3269 51.6642C89.0845 52.5999 88.4716 53.7617 87.5266 55.0769C86.5816 56.3921 85.3249 57.8323 83.8352 59.3071C82.3455 60.7819 80.6551 62.2597 78.8698 63.6476C77.0844 65.0356 75.2428 66.3039 73.4602 67.373C71.6776 68.4421 69.9926 69.289 68.5108 69.8605C67.0289 70.432 65.7822 70.7159 64.8488 70.6943C63.9154 70.6728 59.2119 73.3997 58.9829 72.7886Z" fill="#111111" fill-opacity="0.2"/>
</svg>
