<svg width="120" height="120" viewBox="0 0 120 120" fill="none" xmlns="http://www.w3.org/2000/svg">
<path d="M60 120C52.7 119.1 45.45 117.125 38.25 114.075C31.05 111.025 24.625 106.65 18.975 100.95C13.325 95.25 8.75 88.05 5.25 79.35C1.75 70.65 0 60.2 0 48V42H6C11.1 42 16.35 42.65 21.75 43.95C27.15 45.25 32.2 47.2 36.9 49.8C38.1 41.2 40.825 32.375 45.075 23.325C49.325 14.275 54.3 6.5 60 0C65.7 6.5 70.675 14.275 74.925 23.325C79.175 32.375 81.9 41.2 83.1 49.8C87.8 47.2 92.85 45.25 98.25 43.95C103.65 42.65 108.9 42 114 42H120V48C120 60.2 118.25 70.65 114.75 79.35C111.25 88.05 106.675 95.25 101.025 100.95C95.375 106.65 88.975 111.025 81.825 114.075C74.675 117.125 67.4 119.1 60 120ZM59.7 107.7C58.6 91.1 53.675 78.55 44.925 70.05C36.175 61.55 25.3 56.3 12.3 54.3C13.4 71.4 18.475 84.15 27.525 92.55C36.575 100.95 47.3 106 59.7 107.7ZM60 69.6C61.5 67.4 63.325 65.125 65.475 62.775C67.625 60.425 69.7 58.4 71.7 56.7C71.5 51 70.375 45.05 68.325 38.85C66.275 32.65 63.5 26.6 60 20.7C56.5 26.6 53.725 32.65 51.675 38.85C49.625 45.05 48.5 51 48.3 56.7C50.3 58.4 52.4 60.425 54.6 62.775C56.8 65.125 58.6 67.4 60 69.6ZM71.7 105C75.4 103.8 79.25 102.05 83.25 99.75C87.25 97.45 90.975 94.325 94.425 90.375C97.875 86.425 100.825 81.5 103.275 75.6C105.725 69.7 107.2 62.6 107.7 54.3C98.3 55.7 90.05 58.825 82.95 63.675C75.85 68.525 70.4 74.7 66.6 82.2C67.8 85.4 68.825 88.9 69.675 92.7C70.525 96.5 71.2 100.6 71.7 105Z" fill="#4ADE80"/>
</svg>
