<svg width="15" height="15" viewBox="0 0 15 15" fill="none" xmlns="http://www.w3.org/2000/svg">
<path d="M7.15898 9.72729C6.68928 9.72729 6.25936 9.61176 5.86921 9.3807C5.47906 9.14964 5.16845 8.83904 4.93739 8.44889C4.70633 8.05873 4.5908 7.62881 4.5908 7.15911C4.5908 6.68563 4.70633 6.2557 4.93739 5.86934C5.16845 5.47919 5.47906 5.16858 5.86921 4.93752C6.25936 4.70646 6.68928 4.59093 7.15898 4.59093C7.63247 4.59093 8.06239 4.70646 8.44875 4.93752C8.8389 5.16858 9.14951 5.47919 9.38057 5.86934C9.61163 6.2557 9.72716 6.68563 9.72716 7.15911C9.72716 7.62881 9.61163 8.05873 9.38057 8.44889C9.14951 8.83904 8.8389 9.14964 8.44875 9.3807C8.06239 9.61176 7.63247 9.72729 7.15898 9.72729ZM6.61353 3.45457V2.19345e-05H7.70443V3.45457H6.61353ZM10.159 4.93184L9.38625 4.15911L11.8408 1.70457L12.6135 2.47729L10.159 4.93184ZM10.8635 7.70457V6.61366H14.3181V7.70457H10.8635ZM11.8408 12.6137L9.38625 10.1591L10.159 9.38639L12.6135 11.8409L11.8408 12.6137ZM6.61353 14.3182V10.8637H7.70443V14.3182H6.61353ZM2.47716 12.6137L1.70443 11.8409L4.15898 9.38639L4.93171 10.1591L2.47716 12.6137ZM-0.000110984 7.70457V6.61366H3.45443V7.70457H-0.000110984ZM4.15898 4.93184L1.70443 2.47729L2.47716 1.70457L4.93171 4.15911L4.15898 4.93184Z" fill="black"/>
</svg>
