<svg width="224" height="224" viewBox="0 0 224 224" fill="none" xmlns="http://www.w3.org/2000/svg">
<path opacity="0.8" d="M44.8 201.6C44.8 210.872 74.9114 218.4 112 218.4C149.089 218.4 179.2 210.872 179.2 201.6C179.2 192.328 149.089 184.8 112 184.8C74.9114 184.8 44.8 192.328 44.8 201.6Z" fill="#1C211B"/>
<path d="M103.04 201.6C103.04 156.8 95.2 123.2 112 89.6C128.8 123.2 120.96 156.8 120.96 201.6H103.04Z" fill="#40493D"/>
<path d="M107.52 145.6C89.6 134.4 67.2 123.2 56 112" stroke="#40493D" stroke-width="6.72" stroke-linecap="round"/>
<path d="M116.48 123.2C134.4 112 156.8 100.8 168 89.6" stroke="#40493D" stroke-width="5.6" stroke-linecap="round"/>
<path opacity="0.85" d="M61.6 78.4C61.6 106.217 84.1835 128.8 112 128.8C139.816 128.8 162.4 106.217 162.4 78.4C162.4 50.5835 139.816 28 112 28C84.1835 28 61.6 50.5835 61.6 78.4H61.6Z" fill="#2E7D32"/>
<path opacity="0.4" d="M72.8 78.4C72.8 100.035 90.365 117.6 112 117.6C133.635 117.6 151.2 100.035 151.2 78.4C151.2 56.7649 133.635 39.2 112 39.2C90.365 39.2 72.8 56.7649 72.8 78.4Z" fill="#88D982"/>
<path opacity="0.9" d="M39.2 106.4C39.2 121.854 51.7463 134.4 67.2 134.4C82.6536 134.4 95.2 121.854 95.2 106.4C95.2 90.9464 82.6536 78.4 67.2 78.4C51.7463 78.4 39.2 90.9464 39.2 106.4Z" fill="#006619"/>
<path opacity="0.8" d="M128.8 84C128.8 102.544 143.856 117.6 162.4 117.6C180.944 117.6 196 102.544 196 84C196 65.4557 180.944 50.4 162.4 50.4C143.856 50.4 128.8 65.4557 128.8 84Z" fill="#2E7D32"/>
<path opacity="0.8" d="M112 33.6C115.733 26.1333 119.467 26.1333 123.2 33.6C119.467 41.0667 115.733 41.0667 112 33.6Z" fill="#CBFFC2"/>
<path opacity="0.7" d="M61.6 84C57.8667 78.7733 54.1334 78.7733 50.4 84C54.1334 89.2266 57.8667 89.2266 61.6 84Z" fill="#88D982"/>
<path opacity="0.6" d="M151.2 50.4C156.427 45.1733 162.027 45.1733 168 50.4C162.027 55.6266 156.427 55.6266 151.2 50.4Z" fill="#82DB7E"/>
<path opacity="0.5" d="M76.16 56C76.16 57.2363 77.1637 58.24 78.4 58.24C79.6363 58.24 80.64 57.2363 80.64 56C80.64 54.7637 79.6363 53.76 78.4 53.76C77.1637 53.76 76.16 54.7637 76.16 56Z" fill="white"/>
<path opacity="0.4" d="M132.72 112C132.72 112.927 133.473 113.68 134.4 113.68C135.327 113.68 136.08 112.927 136.08 112C136.08 111.073 135.327 110.32 134.4 110.32C133.473 110.32 132.72 111.073 132.72 112V112Z" fill="white"/>
<path opacity="0.6" d="M120.4 44.8C120.4 46.3454 121.655 47.6 123.2 47.6C124.745 47.6 126 46.3454 126 44.8C126 43.2546 124.745 42 123.2 42C121.655 42 120.4 43.2546 120.4 44.8Z" fill="white"/>
</svg>
